<svg width="36" height="40" viewBox="0 0 36 40" fill="none" xmlns="http://www.w3.org/2000/svg">
<g clip-path="url(#clip0_172_21362)">
<path d="M17.2001 15.2001C17.7801 13.3901 18.1401 11.6401 18.9001 10.0901C19.9701 7.88006 21.1701 5.69006 22.6401 3.73006C23.5601 2.50006 24.9501 1.50006 26.3401 0.770057C29.5001 -0.889943 32.5901 0.220057 34.2001 3.39006C35.3601 5.67006 35.6501 8.14006 35.4101 10.6301C35.1901 12.8401 34.8601 15.0801 34.2601 17.2201C32.1701 24.6701 28.3501 31.1701 23.0601 36.7901C19.8201 40.2201 18.8501 40.1701 15.5801 36.8201C15.4101 36.6501 15.2301 36.4901 15.0801 36.3001C10.7501 30.4601 6.39008 24.6501 2.14008 18.7501C0.80008 16.9201 0.0800804 14.7701 8.03932e-05 12.4701C-0.0599196 10.6601 0.31008 8.97006 1.40008 7.49006C2.87008 5.50006 5.12008 4.73006 7.53008 5.37006C10.3901 6.13006 12.4101 8.05006 14.1001 10.3201C15.2201 11.8301 16.1401 13.5001 17.1901 15.1901L17.2001 15.2001ZM17.7801 20.0901C17.5201 20.1001 17.2701 20.1101 17.0101 20.1301C16.8001 19.5601 16.5701 19.0101 16.3901 18.4301C15.4001 15.1701 13.8201 12.2301 11.4801 9.75006C10.6101 8.83006 9.63008 7.96006 8.55008 7.31006C5.17008 5.26006 1.68008 6.98006 1.13008 10.9201C0.89008 12.6201 1.06008 14.3101 1.89008 15.8201C2.88008 17.6301 3.95008 19.4301 5.15008 21.1101C7.76008 24.7401 10.4901 28.2901 13.1501 31.8901C15.0101 34.4101 17.0401 36.7501 19.8301 38.7001C21.0401 37.3901 22.3401 36.1101 23.5001 34.7001C28.4401 28.7101 32.2901 22.1401 33.9601 14.4601C34.5601 11.7001 34.7701 8.92006 34.1401 6.14006C32.9701 0.940057 28.8501 -0.469943 24.9401 3.13006C23.5001 4.45006 22.3301 6.16006 21.3601 7.88006C19.7001 10.8201 18.8701 14.0901 18.3201 17.4201C18.1701 18.3201 17.9601 19.2101 17.7801 20.1101V20.0901Z" fill="black"/>
<path d="M7.41005 18.52C6.70005 18.28 6.35005 18.27 6.18005 18.09C4.66005 16.49 3.73005 14.57 3.42005 12.4C3.21005 10.9 3.63005 10.54 5.72005 10.26C4.70005 11.23 4.57005 12.21 5.11005 13.27C5.58005 14.19 6.04005 15.11 6.46005 16.06C6.77005 16.74 7.00005 17.45 7.41005 18.51V18.52Z" fill="black"/>
<path d="M9.09008 22.39C8.79008 22.09 8.48008 21.8 8.21008 21.48C8.18008 21.44 8.40008 21.12 8.42008 21.12C8.83008 21.31 9.23008 21.53 9.64008 21.74C9.46008 21.96 9.28008 22.17 9.10008 22.39H9.09008Z" fill="black"/>
</g>
<defs>
<clipPath id="clip0_172_21362">
<rect width="35.48" height="39.34" fill="white"/>
</clipPath>
</defs>
</svg>
