<svg width="286" height="249" viewBox="0 0 286 249" fill="none" xmlns="http://www.w3.org/2000/svg">
<g clip-path="url(#clip0_115_2332)">
<path d="M91.0129 192.609C82.4444 187.707 74.0559 182.805 65.5954 178.01C51.0506 169.781 37.0099 160.836 25.3452 148.706C9.97235 132.748 3.88801 113.998 7.95623 92.0645C11.4844 73.1722 20.3409 57.178 33.6257 43.4381C44.7143 31.9524 57.783 23.1145 72.3998 16.7097C125.287 -6.36902 177.958 -5.36715 230.233 18.7135C242.581 24.4026 253.706 32.0598 263.174 41.8996C285.928 65.4792 291.652 92.7444 280.419 123.373C273.759 141.514 262.274 156.435 247.73 169.029C225.12 188.602 198.731 199.622 168.921 202.52C168.057 202.592 167.193 202.771 166.329 202.735C159.093 202.413 154.772 205.777 150.416 211.752C132.487 236.441 106.89 247.139 76.9721 249.036C75.532 249.143 74.0919 249 72.6878 248.785C71.8598 248.678 71.1038 248.213 69.4837 247.533C70.3117 245.78 70.6357 243.633 71.8958 242.667C88.1687 229.857 89.7888 211.716 91.0489 192.645L91.0129 192.609ZM75.82 244.957C77.7281 245.1 79.0242 245.386 80.2843 245.279C109.446 242.381 134.431 231.897 150.344 205.991C153.26 201.232 156.501 199.408 162.009 199.193C183.934 198.334 204.563 192.466 223.608 181.624C247.478 168.028 266.235 149.565 276.819 123.91C288.808 94.7481 282.832 66.5169 260.366 44.3327C249.818 33.9204 237.433 26.2275 223.896 20.2878C191.17 5.97543 157.041 1.57436 121.795 6.97729C95.8732 10.949 71.6438 19.6438 50.3666 35.2801C31.7536 48.9842 18.4328 66.4095 12.7445 89.0589C7.56021 109.705 11.7364 128.275 26.3533 143.983C31.9696 150.03 38.0539 156.005 44.8943 160.585C58.251 169.459 72.1838 177.545 86.1166 185.489C95.4771 190.856 97.4572 193.826 95.9091 204.632C93.821 219.123 89.2488 232.433 77.4761 242.273C76.9001 242.738 76.6481 243.597 75.856 244.993L75.82 244.957Z" fill="#141414"/>
<path d="M0 83.2266C7.66843 62.5452 17.821 43.3666 34.1299 27.9092C34.7779 28.3028 35.39 28.7321 36.038 29.1257C31.6458 34.8507 26.9655 40.3967 22.8973 46.3722C18.9011 52.276 15.3009 58.5019 11.9887 64.8352C8.60448 71.2758 5.76032 78.0026 2.70015 84.5863C1.8001 84.1211 0.90005 83.656 0 83.1908L0 83.2266Z" fill="#141414"/>
<path d="M148.328 231.682C151.604 224.848 154.88 218.014 158.193 211.179C158.841 219.66 155.601 226.529 150.884 232.791C150.02 232.433 149.192 232.04 148.328 231.682Z" fill="#141414"/>
<path d="M59.6552 13.7399C53.9669 17.0675 49.7547 19.5006 44.4624 22.6136C48.9987 15.3143 51.4468 13.8115 59.6552 13.7399Z" fill="#141414"/>
<path d="M167.625 206.242C171.801 206.743 175.942 207.244 181.954 207.995C177.442 210.237 172.545 210.297 167.265 208.174L167.589 206.277L167.625 206.242Z" fill="#141414"/>
<path d="M165.465 215.151C167.085 218.479 170.11 221.484 165.969 226.1C165.141 222.629 164.313 219.159 163.449 215.688C164.133 215.509 164.781 215.33 165.465 215.151Z" fill="#141414"/>
</g>
<defs>
<clipPath id="clip0_115_2332">
<rect width="286" height="249" fill="white"/>
</clipPath>
</defs>
</svg>
